<svg width="1222" height="276" fill="none" xmlns="http://www.w3.org/2000/svg"><path opacity=".2" fill-rule="evenodd" clip-rule="evenodd" d="M.96 218V12.4h152.961v50.2h-90.16v27.64h70.28v48.8h-70.28v29.04h89.04V218H.961zm60.8-47.92v-33.04h70.281v-44.8h-70.28V60.6h90.16V14.4H2.961V216H150.8v-45.92H61.76zM280.534 58.6v55.469l-1.642.299c-9.912 1.802-25.305 6.007-46.238 12.654V218h-61.68V59.16h58.04v21.072c16.63-14.296 33.145-21.632 49.52-21.632h2zm-51.52 24.283a160.35 160.35 0 00-2 1.797V61.16h-54.04V216h57.68v-90.44c21.654-6.907 37.614-11.293 47.88-13.16V60.6c-.666 0-1.332.013-2 .038-15.522.587-31.362 8.002-47.52 22.245zM291.56 59.16h61.4V218h-61.4V59.16zm-.84-56.56h62.8v45.44h-62.8V2.6zm85.42 171.199c5.853 1.019 13.871 2.113 24.052 3.281 11.574.933 19.88 1.4 24.92 1.4 11.574 0 17.36-3.64 17.36-10.92 0-2.8-1.866-4.947-5.6-6.44-4.106-1.68-9.333-2.987-15.68-3.92-9.146-1.867-14-2.893-14.56-3.08-12.32-3.173-21.373-8.027-27.16-14.56-5.786-6.72-8.68-15.587-8.68-26.6 0-36.773 23.52-55.16 70.56-55.16 6.347 0 14.84.467 25.48 1.4 11.2.933 19.32 1.96 24.36 3.08l-1.68 41.72a298.542 298.542 0 00-21.56-3.08c-8.96-.933-15.68-1.4-20.16-1.4-13.066 0-19.6 2.987-19.6 8.96 0 2.24 1.12 4.2 3.36 5.88 2.8 1.493 8.774 3.08 17.92 4.76 8.774 1.493 15.68 3.08 20.72 4.76 7.654 2.24 14.187 6.067 19.6 11.48 7.28 6.907 10.92 17.173 10.92 30.8 0 35.467-24.266 53.2-72.8 53.2-8.96 0-18.386-.373-28.28-1.12-11.2-.56-20.253-1.4-27.16-2.52l1.68-42.28c.632.119 1.295.238 1.988.359zm23.368 46.437c-11.224-.562-20.351-1.406-27.356-2.542l-1.749-.283 1.843-46.363 2.275.426c5.897 1.106 14.509 2.312 25.866 3.615 11.553.931 19.778 1.391 24.725 1.391 5.642 0 9.532-.899 11.955-2.423 2.268-1.426 3.405-3.491 3.405-6.497 0-1.629-.977-3.237-4.343-4.583l-.007-.003-.007-.003c-3.907-1.598-8.963-2.873-15.214-3.792l-.054-.008-.055-.011a1645.62 1645.62 0 01-10.514-2.173c-1.216-.258-2.17-.464-2.858-.618a23.971 23.971 0 01-1.333-.324c-12.516-3.23-21.973-8.228-28.112-15.159l-.009-.01-.009-.011c-6.17-7.165-9.165-16.533-9.165-27.905 0-18.844 6.052-33.286 18.408-42.946 12.264-9.586 30.426-14.214 54.152-14.214 6.431 0 14.988.472 25.652 1.407 11.208.934 19.441 1.97 24.622 3.12l1.632.363-1.84 45.684-2.259-.405a297.438 297.438 0 00-21.414-3.06c-8.945-.932-15.581-1.389-19.953-1.389-6.443 0-10.996.746-13.868 2.059-1.411.645-2.327 1.387-2.891 2.159-.547.751-.841 1.638-.841 2.742 0 1.422.654 2.81 2.437 4.186 2.547 1.307 8.167 2.826 17.191 4.484 8.791 1.497 15.796 3.1 20.97 4.821 7.938 2.329 14.749 6.314 20.398 11.956 7.792 7.404 11.524 18.272 11.524 32.233 0 18.241-6.274 32.201-19.02 41.515-12.629 9.229-31.329 13.685-55.78 13.685-9.007 0-18.475-.375-28.404-1.124zM626.738 104.6h-42.56v55.68c0 4.739 1.365 7.954 3.784 10.033 2.477 2.129 6.403 3.367 12.136 3.367 3.335 0 9.324-.803 18.104-2.484l2.376-.455v45.173l-1.554.356c-6.655 1.521-14.687 2.651-24.079 3.403-10.659.935-19.123 1.407-25.367 1.407-15.223 0-27.011-3.662-34.987-11.339-7.99-7.691-11.813-19.08-11.813-33.781V104.6h-16.8V68.085l50.536-43.645h27.664v34.72h42.56v45.44zm-44.56-43.44V26.44h-24.92L507.978 69v33.6h16.8v73.36c0 28.747 14.933 43.12 44.8 43.12 6.16 0 14.56-.467 25.2-1.4 9.333-.747 17.267-1.867 23.8-3.36v-41.16c-.682.131-1.349.256-2 .377-7.716 1.429-13.209 2.143-16.48 2.143-11.947 0-17.92-5.133-17.92-15.4V102.6h42.56V61.16h-42.56zm201.214 104.715v45.224l-1.488.394c-24.758 6.565-46.962 9.867-66.592 9.867-27.739 0-48.911-6.793-63.14-20.731-14.236-13.946-21.18-34.71-21.18-61.909 0-10.804 1.326-20.884 3.996-30.229l.006-.019.005-.017c2.867-9.365 7.262-18.058 13.178-26.075 6.033-8.364 14.557-14.823 25.47-19.42 11.129-4.796 24.195-7.16 39.145-7.16 23.933 0 42.248 6.128 54.56 18.732 12.304 12.596 18.28 31.318 18.28 55.788v22.44h-90.286c.757 6.982 3.758 12.128 8.918 15.671 5.774 3.965 14.496 6.089 26.448 6.089 5.997 0 13.804-.82 23.453-2.49 8.358-1.486 17.281-3.344 26.768-5.577l2.459-.578zM754.512 174c-9.707 1.68-17.64 2.52-23.8 2.52-23.306 0-35.765-7.92-37.376-23.76a33.645 33.645 0 01-.144-2h90.44v-20.44c0-48.347-23.614-72.52-70.84-72.52-14.747 0-27.534 2.333-38.36 7-10.64 4.48-18.854 10.733-24.64 18.76-5.787 7.84-10.08 16.333-12.88 25.48-2.614 9.147-3.92 19.04-3.92 29.68 0 53.76 27.44 80.64 82.32 80.64 19.413 0 41.44-3.267 66.08-9.8V168.4l-2 .467c-8.778 2.034-17.071 3.745-24.88 5.133zm-31.217-71.52l-.018-.022c-2.763-3.412-6.465-5.138-11.325-5.138-5.416 0-9.586 1.91-12.721 5.692-2.685 3.439-4.222 7.645-4.538 12.708h33.13c-.289-5.783-1.857-10.124-4.51-13.218l-.018-.022zm6.53 13.24c.031.652.047 1.319.047 2h-37.24c0-.678.019-1.345.057-2 .321-5.472 1.982-10.126 4.983-13.96 3.546-4.293 8.306-6.44 14.28-6.44 5.413 0 9.706 1.96 12.88 5.88 3.037 3.543 4.701 8.383 4.993 14.52zM863.194 275.4h-61.4V59.16h60v11.565c14.2-9.716 28.755-14.645 43.64-14.645 17.087 0 30.755 7.138 40.829 21.28 10.029 14.08 14.931 33.205 14.931 57.16 0 28.247-6.162 49.805-18.834 64.316-12.717 14.562-31.689 21.684-56.526 21.684-5.854 0-13.414-.896-22.64-2.652V275.4zm-2-59.96c.675.135 1.342.266 2 .392 9.338 1.792 16.885 2.688 22.64 2.688 48.906 0 73.36-28 73.36-84 0-23.707-4.854-42.373-14.56-56-9.707-13.627-22.774-20.44-39.2-20.44-14.802 0-29.349 5.026-43.64 15.08-.668.468-1.334.949-2 1.44V61.16h-56V273.4h57.4v-57.96zm28.424-110.877c-1.839-1.265-4.007-1.923-6.584-1.923-5.873 0-12.472 2.771-19.84 8.745v63.063c4.35 1.175 8.441 1.752 12.28 1.752 8.869 0 14.626-2.892 17.889-8.277 3.428-5.655 5.311-15.807 5.311-30.883 0-12.036-1.469-20.771-4.21-26.428-1.357-2.801-2.992-4.774-4.846-6.049zm-28.424 71.397v-65.52c7.84-6.533 15.12-9.8 21.84-9.8 11.76 0 17.64 12.133 17.64 36.4 0 15.12-1.867 25.76-5.6 31.92-3.734 6.16-10.267 9.24-19.6 9.24-4.48 0-9.24-.747-14.28-2.24zM982.16 64.24c8.4-1.867 19.04-3.36 31.92-4.48 11.2-1.307 22.03-1.96 32.48-1.96 21.84 0 38.83 5.04 50.96 15.12 12.32 9.893 18.48 24.36 18.48 43.4V216h-49.56l-3.36-14.28h-1.4c-15.49 11.013-30.05 16.52-43.68 16.52-14.75 0-26.6-4.387-35.56-13.16-8.96-8.96-13.44-21.187-13.44-36.68 0-14.747 5.134-26.227 15.4-34.44 10.267-8.4 25.01-12.6 44.24-12.6h29.96v-6.44c0-10.827-8.96-16.24-26.88-16.24-7.47 0-15.77.653-24.92 1.96-9.052 1.341-16.598 2.833-22.64 4.475-.686.186-1.352.375-2 .565V64.24zm24.93 38.379c-10.031 1.486-18.143 3.15-24.365 4.98l-2.565.754V62.636l1.566-.348c8.511-1.892 19.234-3.394 32.154-4.518 11.26-1.313 22.15-1.97 32.68-1.97 22.12 0 39.62 5.103 52.23 15.57 12.88 10.352 19.21 25.448 19.21 44.95V218h-53.14l-3.25-13.788c-15.25 10.595-29.8 16.028-43.61 16.028-15.17 0-27.56-4.528-36.959-13.731l-.007-.007-.008-.008C971.611 197.079 967 184.298 967 168.4c0-15.266 5.345-27.353 16.142-35.995 10.754-8.794 26.018-13.045 45.498-13.045h27.96v-4.44c0-4.742-1.9-8.139-5.75-10.468-4.02-2.428-10.31-3.772-19.13-3.772-7.35 0-15.56.643-24.63 1.939zm35.27 48.701c-10.27 0-15.4 4.387-15.4 13.16 0 4.48 1.12 7.933 3.36 10.36 2.43 2.427 5.6 3.64 9.52 3.64 6.16 0 12.41-2.147 18.76-6.44v-20.72h-16.24zm14.24 2h-14.24c-4.89 0-8.19 1.052-10.25 2.81-2 1.707-3.15 4.361-3.15 8.35 0 4.137 1.03 7.031 2.8 8.973 2 1.98 4.62 3.027 8.08 3.027 5.4 0 10.98-1.787 16.76-5.516V153.32zM1138.94.36h61.4V218h-61.4V.36zM1257.3 218l-49.12-158.84h65.33l24.18 101.161 23.9-101.161h64.23L1336.12 218h-78.82zm38.99-54.92l-24.36-101.92h-61.04L1258.77 216h75.88l48.44-154.84h-59.92l-24.08 101.92h-2.8zm237.69 2.795v45.224l-1.49.394c-24.76 6.565-46.96 9.867-66.59 9.867-27.74 0-48.91-6.793-63.14-20.731-14.24-13.946-21.18-34.71-21.18-61.909 0-10.804 1.32-20.884 3.99-30.229l.01-.019.01-.017c2.86-9.362 7.25-18.053 13.17-26.068 6.03-8.367 14.56-14.828 25.47-19.425 11.13-4.797 24.2-7.162 39.15-7.162 23.93 0 42.25 6.128 54.56 18.732 12.3 12.596 18.28 31.318 18.28 55.788v22.44h-90.29c.76 6.982 3.76 12.128 8.92 15.671 5.77 3.965 14.5 6.089 26.45 6.089 5.99 0 13.8-.82 23.45-2.489 8.36-1.486 17.28-3.345 26.77-5.578l2.46-.578zM1505.1 174c-9.71 1.68-17.64 2.52-23.8 2.52-23.31 0-35.77-7.92-37.38-23.76a42.12 42.12 0 01-.14-2h90.44v-20.44c0-48.347-23.62-72.52-70.84-72.52-14.75 0-27.54 2.333-38.36 7-10.64 4.48-18.86 10.733-24.64 18.76-5.79 7.84-10.08 16.333-12.88 25.48-2.62 9.147-3.92 19.04-3.92 29.68 0 53.76 27.44 80.64 82.32 80.64 19.41 0 41.44-3.267 66.08-9.8V168.4l-2 .467c-8.78 2.034-17.07 3.745-24.88 5.133zm-31.22-71.52l-.02-.022c-2.76-3.412-6.46-5.138-11.32-5.138-5.42 0-9.59 1.91-12.72 5.693-2.69 3.439-4.23 7.645-4.54 12.707h33.13c-.29-5.783-1.86-10.124-4.51-13.218l-.02-.022zm6.53 13.24c.03.652.05 1.319.05 2h-37.24c0-.678.02-1.345.06-2 .32-5.472 1.98-10.126 4.98-13.96 3.54-4.293 8.3-6.44 14.28-6.44 5.41 0 9.7 1.96 12.88 5.88 3.03 3.543 4.7 8.383 4.99 14.52zM1552.38.36h61.4V218h-61.4V.36zm82.55 58.8h61.4v103.36c0 4.15.89 6.89 2.32 8.574 1.39 1.622 3.55 2.586 6.88 2.586 6.3 0 13.64-2.738 22.08-8.562V59.16h61.4V218h-52.49l-4.07-13.58c-16.13 11.235-32.4 16.94-48.76 16.94-15.65 0-27.89-4.108-36.41-12.626l-.01-.008-.01-.009c-8.32-8.523-12.33-20.864-12.33-36.677V59.16zM1733.81 202l4.2 14h49V61.16h-57.4v105c-8.96 6.347-16.99 9.52-24.08 9.52-7.47 0-11.2-4.387-11.2-13.16V61.16h-57.4v110.88c0 15.493 3.92 27.253 11.76 35.28 8.03 8.027 19.69 12.04 35 12.04 16.24 0 32.48-5.787 48.72-17.36h1.4zM293.559 61.16V216h57.4V61.16h-57.4zm-.84-56.56v41.44h58.8V4.6h-58.8zm848.221-2.24V216h57.4V2.36h-57.4zm413.44 0V216h57.4V2.36h-57.4z" fill="#fff"/></svg>