<svg width="258" height="40" fill="none" xmlns="http://www.w3.org/2000/svg"><path d="M80.446 11.083v11.048L68.003 6.408l-.454-.574.003-.004-1.95-2.456-.416-.522-2.248-2.84h8.743l.689.87 8.076 10.201z" fill="url(#paint0_linear)"/><path d="M65.602 3.374l1.95 2.456-.003.004-1.947-2.46zM71.671 0l.01.012h-8.743L62.928 0h8.743z" fill="#063"/><path d="M97.137 32.174l-8.264.079v-.068h.021l-.021-.027V21.73l1.784 2.255.32.407 6.16 7.78z" fill="url(#paint1_linear)"/><path d="M88.873 32.083v.075l-.035-.044.035-.031zm.022.273h-.132l.075-.072.035-.031v.075l.022.028zm-.001-.171h-.021v-.027l.021.027z" fill="#063"/><path d="M80.443 32.185v7.813H57.109L48.817 29.52l-4.692-5.926-.06-.079L30.536 6.42 25.462.012h8.743l.698.882 13.536 17.1.1.126 4.623 5.842.028.036.32.407 6.16 7.78h20.773z" fill="url(#paint2_linear)"/><path d="M88.873 32.083v.075l-.035-.044.035-.031z" fill="url(#paint3_linear)"/><path d="M57.11 39.999H0v-7.812L18.087 9.336v-.004l7.375-9.32 5.074 6.409-20.394 25.766h27.184l6.799-8.591 4.692 5.925-2.11 2.666h4.22l6.182 7.812z" fill="url(#paint4_linear)"/><path d="M62.923 0l.01.013h-.02l.01-.013z" fill="url(#paint5_linear)"/><path d="M67.552 5.83l-.003.004-1.947-2.46 1.95 2.456z" fill="url(#paint6_linear)"/><path d="M98.952 39.998h-18.51v-7.642l.004-.107V.004L88.87 0l.003 21.526v10.557l-.035.031.035.044v.095l-.035.032-.075.07h.132l-.022-.027v-.075l8.264-.08 1.784 2.358.031 5.467z" fill="url(#paint7_linear)"/><path d="M88.873 32.083v.075l-.035-.044.035-.031z" fill="url(#paint8_linear)"/><path d="M88.894 32.185h-.021v-.027l.021.027z" fill="#008D36"/><path d="M67.549 5.834L53.162 23.962 48.54 18.12 62.913.012h.019l2.254 2.84.416.522 1.947 2.46z" fill="url(#paint9_linear)"/><path d="M103.548 20.49V.598h12.765v2.155h-10.306v6.686h9.007v2.127h-9.007v6.77h10.278v2.154h-12.737z" fill="#149038"/><path d="M116.552 20.757h-13.27V.332h13.297V3.02h-10.305v6.153h9.007v2.66h-9.007v6.236h10.278v2.688zm-12.737-.533h12.203v-1.622h-10.277V11.3h9.006V9.706h-9.006v-7.22h10.305V.865h-12.231v19.359zM127.364 5.46v2.46a9.824 9.824 0 00-2.266.607 33.448 33.448 0 00-3.619 1.74V20.49h-2.349V5.571h2.266v2.68l1.409-.912c1.731-1.141 3.251-1.768 4.559-1.878z" fill="#149038"/><path d="M121.745 20.757h-2.881V5.304h2.799v2.457l.997-.646c1.759-1.16 3.335-1.807 4.681-1.92l.29-.025v2.98l-.229.034a9.6 9.6 0 00-2.205.591 32.39 32.39 0 00-3.452 1.653v10.329zm-2.348-.533h1.815V10.108l.141-.075a33.883 33.883 0 013.652-1.756c.675-.27 1.376-.466 2.092-.586V5.759c-1.194.17-2.587.775-4.145 1.803l-1.823 1.18V5.837h-1.732v14.386zM129.242.267h2.431v2.9h-2.431v-2.9zm.056 5.304h2.348v14.92h-2.348V5.57z" fill="#149038"/><path d="M131.913 20.757h-2.882V5.304h2.882v15.453zm-2.349-.533h1.815V5.838h-1.815v14.386zm2.376-16.79h-2.964V0h2.964v3.434zm-2.431-.533h1.898V.533h-1.898v2.368zm9.983 15.876c2.321 0 3.482-.856 3.482-2.57-.074-.81-.337-1.353-.788-1.63-.452-.275-1.396-.515-2.832-.717-1.823-.24-3.071-.686-3.743-1.34-.673-.654-1.046-1.616-1.119-2.888 0-2.928 1.98-4.393 5.94-4.393 1.388.008 2.775.128 4.144.36v2.127a25.263 25.263 0 00-3.896-.414c-2.505 0-3.757.737-3.757 2.21a2.4 2.4 0 00.124.815c.088.236.247.44.456.58.221.157.401.281.539.373.246.13.512.22.787.263.387.082.64.133.76.152.12.018.41.055.87.11 1.4.203 2.404.46 3.012.774 1.289.644 1.934 1.814 1.934 3.508 0 1.51-.493 2.676-1.478 3.495-.986.82-2.418 1.23-4.297 1.23a49.411 49.411 0 01-5.056-.304v-2.183a33.92 33.92 0 004.918.442z" fill="#149038"/><path d="M139.63 21.089a49.854 49.854 0 01-5.083-.306l-.239-.025v-2.732l.306.046c1.614.264 3.244.41 4.878.439 2.164 0 3.215-.753 3.215-2.303-.064-.694-.287-1.174-.66-1.403-.418-.255-1.337-.485-2.73-.681-1.897-.249-3.171-.711-3.892-1.413-.719-.699-1.122-1.729-1.199-3.063-.001-3.107 2.087-4.675 6.206-4.675 1.403.008 2.803.13 4.187.363l.224.036v2.669l-.311-.052a25.17 25.17 0 00-3.851-.41c-3.491 0-3.491 1.462-3.491 1.943-.006.246.031.491.108.725a.932.932 0 00.359.452c.219.156.397.279.533.37.218.112.453.188.695.223.398.085.634.133.744.149.119.018.407.055.862.11 1.45.21 2.463.472 3.102.8 1.378.69 2.079 1.95 2.079 3.747 0 1.586-.53 2.83-1.575 3.7-1.03.856-2.533 1.29-4.467 1.29zm-4.789-.812c1.818.185 3.428.278 4.789.278 1.806 0 3.195-.393 4.126-1.168.93-.773 1.382-1.849 1.382-3.29 0-1.599-.584-2.668-1.786-3.27-.581-.299-1.566-.55-2.931-.748a34.25 34.25 0 01-.873-.11 15.88 15.88 0 01-.774-.155 2.669 2.669 0 01-.88-.302 21.62 21.62 0 01-.545-.377 1.466 1.466 0 01-.553-.708 2.703 2.703 0 01-.14-.905c0-1.644 1.354-2.477 4.025-2.477a24.35 24.35 0 013.628.367V5.826a25.205 25.205 0 00-3.877-.32c-3.818 0-5.674 1.35-5.674 4.126.069 1.182.419 2.094 1.039 2.697.627.61 1.835 1.036 3.592 1.266 1.489.21 2.449.457 2.936.755.525.322.833.939.914 1.834.001 1.318-.649 2.86-3.747 2.86a33.34 33.34 0 01-4.651-.4v1.633zm16.2-17.994v3.288h4.779v2.045h-4.779v9.366a1.643 1.643 0 00.483 1.243c.403.342.924.51 1.45.47a7.754 7.754 0 002.294-.387v2.072a20.35 20.35 0 01-3.399.414c-1.123 0-1.938-.267-2.445-.8-.506-.535-.76-1.354-.759-2.46V7.616h-2.1V6.124l.497-.553h1.603V3.748l1.409-1.465h.967z" fill="#149038"/><path d="M151.869 21.061c-1.194 0-2.082-.298-2.638-.885-.553-.582-.833-1.47-.833-2.642V7.882h-2.1v-1.86l.645-.718h1.455V3.64l1.562-1.623h1.347v3.287h4.78v2.578h-4.78v9.1a1.38 1.38 0 00.403 1.052c.354.29.808.432 1.264.394a7.511 7.511 0 002.214-.375l.346-.108v2.657l-.218.04a20.65 20.65 0 01-3.447.42zM146.832 7.35h2.099v10.185c0 1.03.231 1.796.687 2.276.451.476 1.209.718 2.251.718 1.053-.038 2.1-.162 3.132-.37v-1.494a7.72 7.72 0 01-2.027.297 2.263 2.263 0 01-1.636-.545 1.908 1.908 0 01-.564-1.435V7.35h4.78V5.838h-4.78V2.55h-.587l-1.256 1.305v1.983h-1.75l-.349.388V7.35zm22.913 10.405v2.1c-1.814.624-3.718.95-5.636.967-2.414 0-4.223-.636-5.429-1.906-1.207-1.271-1.81-3.242-1.81-5.913 0-2.523.589-4.448 1.768-5.774 1.179-1.326 2.883-1.99 5.112-1.99 2.117 0 3.701.6 4.752 1.796 1.049 1.198 1.574 3.03 1.574 5.498v1.133h-10.775c.019 3.37 1.787 5.056 5.305 5.056a15.288 15.288 0 005.139-.967zm-10.471-5.857h8.371c0-3.15-1.335-4.724-4.006-4.725a3.962 3.962 0 00-3.081 1.16c-.893.848-1.321 2.036-1.284 3.565z" fill="#149038"/><path d="M164.109 21.089c-2.478 0-4.37-.67-5.623-1.99-1.249-1.315-1.882-3.367-1.882-6.096 0-2.579.617-4.581 1.835-5.951 1.226-1.38 3.013-2.08 5.311-2.08 2.188 0 3.854.636 4.952 1.888 1.089 1.242 1.641 3.15 1.641 5.674v1.4h-10.769c.106 3.041 1.754 4.522 5.032 4.522a15.092 15.092 0 005.049-.952l.357-.127v2.67l-.183.06a18.12 18.12 0 01-5.72.982zm-.359-15.583c-2.139 0-3.792.64-4.912 1.9-1.129 1.27-1.701 3.153-1.701 5.597 0 2.588.584 4.516 1.736 5.729 1.148 1.21 2.91 1.823 5.236 1.823a17.496 17.496 0 005.369-.893V18.13a15.37 15.37 0 01-4.872.86c-3.678 0-5.552-1.791-5.571-5.322l-.002-.268h10.777v-.866c0-2.39-.508-4.18-1.509-5.323-.992-1.131-2.523-1.705-4.551-1.705zm4.162 6.659h-8.898l-.007-.26c-.039-1.6.422-2.867 1.368-3.765a4.231 4.231 0 013.281-1.233h.001c2.818 0 4.255 1.68 4.255 4.99v.268zm-8.373-.534h7.836c-.071-2.82-1.295-4.19-3.736-4.19a3.68 3.68 0 00-2.897 1.086c-.782.742-1.186 1.785-1.203 3.104zm15.703 8.639v5.884h-2.348V5.571h2.348v1.713c1.916-1.363 3.767-2.044 5.554-2.044a4.584 4.584 0 013.937 1.975c.948 1.317 1.422 3.136 1.423 5.457 0 5.397-2.349 8.095-7.046 8.095a19.752 19.752 0 01-3.868-.498zm8.482-7.46c0-1.805-.317-3.168-.953-4.09a3.059 3.059 0 00-2.666-1.38c-1.455 0-3.076.616-4.863 1.85v9.063c1.193.306 2.416.482 3.647.524 3.223 0 4.835-1.989 4.835-5.967z" fill="#149038"/><path d="M175.509 26.42h-2.882V5.305h2.882v1.473c1.808-1.197 3.585-1.804 5.287-1.804a4.854 4.854 0 014.153 2.086c.978 1.358 1.474 3.246 1.474 5.613 0 5.548-2.46 8.361-7.312 8.361a19.18 19.18 0 01-3.602-.437v5.825zm-2.348-.533h1.815v-5.946l.321.067a19.58 19.58 0 003.814.492c4.561 0 6.778-2.56 6.778-7.828 0-2.253-.462-4.036-1.373-5.301a4.29 4.29 0 00-3.72-1.865c-1.721 0-3.538.672-5.399 1.995l-.421.3V5.838h-1.815v20.05zm5.728-6.843a17.34 17.34 0 01-3.707-.532l-.206-.047V9.05l.115-.08c1.824-1.26 3.511-1.898 5.014-1.898a3.322 3.322 0 012.886 1.496c.663.963 1 2.39 1 4.24 0 4.138-1.716 6.235-5.102 6.235zm-3.38-1.004a16.2 16.2 0 003.38.47c3.075 0 4.569-1.864 4.569-5.7 0-1.742-.305-3.066-.906-3.937a2.785 2.785 0 00-2.447-1.267c-1.362 0-2.907.58-4.596 1.725v8.71zm17.692-6.308h4.448V10.13c0-1.916-1.188-2.873-3.564-2.874-.833.018-1.664.092-2.487.222-.827.11-1.648.268-2.459.47V5.874c.626-.147 1.529-.294 2.708-.442a21.21 21.21 0 012.763-.194c1.731 0 3.066.429 4.006 1.285.939.857 1.409 2.105 1.409 3.744V20.49h-2.017l-.193-1.878c-1.916 1.344-3.684 2.017-5.305 2.016-1.455 0-2.592-.396-3.412-1.188-.82-.791-1.229-1.85-1.229-3.177 0-1.436.474-2.55 1.422-3.343.949-.792 2.252-1.188 3.91-1.188zm4.448 5.167V13.5h-4.2c-1.031 0-1.819.226-2.362.677a2.353 2.353 0 00-.815 1.92 2.413 2.413 0 00.788 1.907 3.13 3.13 0 002.141.69 6.015 6.015 0 002.265-.51 8.47 8.47 0 002.183-1.285z" fill="#149038"/><path d="M192.51 20.895c-1.52 0-2.731-.425-3.597-1.263-.87-.84-1.311-1.973-1.311-3.369 0-1.512.511-2.706 1.519-3.547.993-.83 2.366-1.25 4.08-1.25h4.181V10.13c0-1.754-1.078-2.607-3.297-2.607a18.28 18.28 0 00-2.449.219c-.816.11-1.626.264-2.426.462l-.337.093V5.664l.206-.049c.63-.148 1.55-.298 2.735-.447a21.56 21.56 0 012.796-.195c1.792 0 3.2.456 4.186 1.354.992.905 1.496 2.231 1.496 3.94v10.49h-2.524l-.173-1.673c-1.813 1.202-3.522 1.811-5.085 1.811zm.691-8.896c-1.586 0-2.844.38-3.739 1.126-.892.746-1.327 1.772-1.327 3.139 0 1.245.387 2.249 1.148 2.985.764.738 1.85 1.113 3.227 1.113 1.557 0 3.291-.662 5.152-1.968l.371-.262.216 2.092h1.509v-9.956c0-1.554-.444-2.747-1.322-3.547-.884-.806-2.172-1.215-3.826-1.215a21.03 21.03 0 00-2.728.191c-1.043.131-1.874.262-2.476.392v1.516a28.292 28.292 0 012.153-.391c.836-.132 1.68-.206 2.526-.224 3.166 0 3.831 1.708 3.831 3.14V12h-4.715zm0 6.962a3.401 3.401 0 01-2.317-.757 2.67 2.67 0 01-.878-2.106 2.617 2.617 0 01.911-2.126c.589-.49 1.442-.738 2.532-.738h4.467v3.79l-.097.08a8.791 8.791 0 01-2.252 1.326 6.297 6.297 0 01-2.366.531zm.248-5.194c-.963 0-1.7.207-2.191.616a2.08 2.08 0 00-.719 1.715 2.137 2.137 0 00.696 1.705 2.893 2.893 0 001.966.625 5.784 5.784 0 002.164-.491 8.31 8.31 0 002.017-1.165v-3.005h-3.933zM203.644.598h2.349V20.49h-2.349V.598z" fill="#149038"/><path d="M206.259 20.757h-2.882V.332h2.882v20.425zm-2.348-.533h1.815V.864h-1.815v19.36zm9.596.294L208.34 5.571h2.515l4.116 12.35h.138l4.089-12.35h2.487l-5.222 14.947h-2.956z" fill="#149038"/><path d="M216.653 20.785h-3.336l-.062-.18-5.289-15.3h3.081l3.993 11.978 3.966-11.979h3.055l-5.408 15.48zm-2.956-.534h2.577l5.036-14.413h-1.919l-4.089 12.35h-.523l-4.116-12.35h-1.948l4.982 14.413zm21.83-2.496v2.1a17.81 17.81 0 01-5.636.967c-2.413 0-4.223-.636-5.429-1.906-1.207-1.271-1.81-3.242-1.81-5.913 0-2.523.59-4.448 1.768-5.774 1.179-1.326 2.883-1.99 5.112-1.99 2.118 0 3.702.6 4.752 1.796 1.05 1.198 1.574 3.03 1.575 5.498v1.133h-10.775c.018 3.37 1.786 5.056 5.304 5.056a15.288 15.288 0 005.139-.967zm-10.471-5.857h8.371c0-3.15-1.335-4.724-4.006-4.725a3.955 3.955 0 00-3.08 1.16c-.894.848-1.322 2.036-1.285 3.565z" fill="#149038"/><path d="M229.891 21.089c-2.478 0-4.37-.67-5.623-1.99-1.249-1.315-1.883-3.367-1.883-6.096 0-2.579.618-4.581 1.836-5.951 1.226-1.38 3.012-2.08 5.31-2.08 2.189 0 3.855.636 4.953 1.888 1.089 1.242 1.641 3.15 1.641 5.674v1.4h-10.77c.106 3.041 1.755 4.522 5.033 4.522a15.092 15.092 0 005.049-.952l.356-.127v2.67l-.182.06a18.126 18.126 0 01-5.72.982zm-.36-15.583c-2.139 0-3.791.64-4.911 1.9-1.129 1.27-1.701 3.153-1.701 5.597 0 2.588.584 4.516 1.736 5.729 1.148 1.21 2.91 1.823 5.236 1.823a17.496 17.496 0 005.369-.893V18.13a15.37 15.37 0 01-4.872.86c-3.678 0-5.552-1.791-5.571-5.322l-.002-.268h10.777v-.866c0-2.39-.508-4.18-1.509-5.323-.992-1.131-2.524-1.705-4.552-1.705zm4.163 6.659h-8.898l-.007-.26c-.039-1.6.421-2.867 1.368-3.765a4.226 4.226 0 013.28-1.233h.002c2.818 0 4.255 1.68 4.255 4.99v.268zm-8.373-.534h7.836c-.071-2.82-1.296-4.19-3.736-4.19a3.68 3.68 0 00-2.897 1.086c-.782.742-1.186 1.785-1.203 3.104zM238.786.598h2.349V20.49h-2.349V.598z" fill="#149038"/><path d="M241.402 20.757h-2.882V.332h2.882v20.425zm-2.349-.533h1.815V.864h-1.815v19.36zm5.701-3.629V5.57h2.349v10.582c0 .81.221 1.437.663 1.878.442.442 1.086.663 1.934.664 1.399 0 3.168-.627 5.304-1.88V5.572h2.349v14.92h-1.962l-.221-1.796c-2.45 1.418-4.485 2.127-6.106 2.127-1.4 0-2.468-.36-3.205-1.078-.736-.718-1.105-1.768-1.105-3.15z" fill="#149038"/><path d="M249.064 21.089c-1.465 0-2.606-.388-3.391-1.153-.786-.768-1.185-1.892-1.185-3.341V5.305h2.881v10.848c0 .744.192 1.297.585 1.69.388.388.976.585 1.746.585 1.317 0 3.011-.594 5.038-1.766V5.304h2.882v15.453h-2.465l-.201-1.633c-2.327 1.304-4.307 1.965-5.89 1.965zm-4.043-15.251v10.757c0 1.3.345 2.296 1.025 2.959.681.664 1.697 1.001 3.018 1.001 1.566 0 3.576-.703 5.973-2.091l.349-.202.241 1.962h1.459V5.838h-1.815v11.13l-.132.078c-2.167 1.27-3.997 1.915-5.439 1.915-.917 0-1.631-.25-2.123-.74a2.804 2.804 0 01-.741-2.068V5.838h-1.815zM152.599 31.08l-3.161 8.66h-1.378l-3.118-8.66h-.084v8.617h-1.197V29.674h2.047l3.09 8.687 3.063-8.687h2.005v10.023h-1.184V31.08h-.083z" fill="#149038"/><path d="M149.532 39.872h-1.565l-2.975-8.26v8.219h-1.464V29.54h2.274l2.996 8.42 2.969-8.42h2.232v10.29h-1.45v-8.226l-3.017 8.267zm-1.378-.266h1.191l3.161-8.66h.31v8.618h.916v-9.757h-1.777l-3.156 8.953-3.185-8.953h-1.819v9.757h.93v-8.617h.311l3.118 8.659zm7.577-1.454h1.059v1.545h-1.059v-1.545z" fill="#149038"/><path d="M156.922 39.83h-1.324v-1.81h1.324v1.812zm-1.058-.266h.792v-1.279h-.792v1.279zm2.79.133V29.674h1.239v8.937h4.817v1.086h-6.056z" fill="#149038"/><path d="M164.844 39.83h-6.323V29.54h1.506v8.938h4.817v1.353zm-6.056-.266h5.789v-.82h-4.817v-8.937h-.972v9.757zm6.772-10.057h1.225v1.461h-1.225v-1.461zm.027 2.673h1.184v7.517h-1.184V32.18z" fill="#149038"/><path d="M166.904 39.83h-1.45v-7.784h1.45v7.785zm-1.183-.266h.917v-7.251h-.917v7.251zm1.197-8.462h-1.492v-1.729h1.492v1.729zm-1.225-.267h.958V29.64h-.958v1.195zm9.249 3.322v5.54h-1.183v-5.332a1.287 1.287 0 00-.334-.946 1.324 1.324 0 00-.975-.334c-.659 0-1.55.32-2.672.96v5.652h-1.184V32.18h1.114v.918c1.262-.723 2.287-1.085 3.077-1.085a1.925 1.925 0 012.157 2.144z" fill="#149038"/><path d="M175.076 39.83h-1.45v-5.465c.01-.154-.011-.31-.061-.456a1.176 1.176 0 00-.234-.396 1.208 1.208 0 00-.881-.295c-.619 0-1.473.304-2.539.905v5.708h-1.45v-7.785h1.38v.824c1.188-.658 2.177-.99 2.944-.99a2.056 2.056 0 012.291 2.277v5.674zm-1.184-.266h.917v-5.407a2.038 2.038 0 00-.511-1.5 2.054 2.054 0 00-1.513-.511c-.762 0-1.775.36-3.011 1.068l-.199.115v-1.016h-.847v7.251h.916v-5.596l.068-.039c1.137-.649 2.059-.978 2.738-.978a1.455 1.455 0 011.069.373 1.411 1.411 0 01.373 1.041v5.199zm2.429-3.459c0-2.728 1.23-4.093 3.689-4.092a9.358 9.358 0 011.796.208v-3.146h1.183v10.622h-.974l-.125-.724a5.193 5.193 0 01-2.715.877 2.512 2.512 0 01-2.109-.96c-.497-.64-.745-1.569-.745-2.785zm1.225-.055c0 1.847.636 2.77 1.907 2.77.687 0 1.471-.278 2.353-.835v-4.747a8.877 8.877 0 00-1.712-.195c-.873 0-1.516.243-1.929.73-.413.488-.619 1.246-.619 2.277z" fill="#149038"/><path d="M179.175 39.984a2.653 2.653 0 01-2.215-1.012c-.513-.662-.772-1.626-.772-2.866 0-2.805 1.285-4.227 3.822-4.227a9.2 9.2 0 011.663.181v-3.118h1.45V39.83h-1.22l-.112-.643a5.218 5.218 0 01-2.616.796zm.835-7.838c-2.393 0-3.556 1.295-3.556 3.96 0 1.18.241 2.089.717 2.702a2.363 2.363 0 002.004.91 5.077 5.077 0 002.644-.858l.168-.104.14.808h.729V29.21h-.917v3.176l-.159-.032a9.263 9.263 0 00-1.77-.207zm-.557 6.808c-1.354 0-2.04-.977-2.04-2.904 0-1.058.219-1.853.651-2.362.437-.517 1.12-.778 2.03-.778.584.01 1.166.075 1.738.197l.107.022v4.93l-.062.039c-.899.568-1.715.856-2.424.856zm.641-5.778c-.828 0-1.443.23-1.827.684-.39.46-.588 1.197-.588 2.19 0 1.775.58 2.637 1.774 2.637.642 0 1.389-.26 2.22-.776v-4.563a8.563 8.563 0 00-1.579-.172zm11.067.967v5.554h-1.183v-5.332a1.284 1.284 0 00-.341-.94 1.311 1.311 0 00-.968-.34c-.332.01-.661.07-.974.18a11.68 11.68 0 00-1.699.766v5.666h-1.183V29.075h1.183v3.996c1.262-.706 2.265-1.058 3.007-1.058a2.198 2.198 0 011.608.543 2.115 2.115 0 01.55 1.587z" fill="#149038"/><path d="M191.294 39.83h-1.45v-5.465a1.13 1.13 0 00-.301-.845c-.341-.34-.938-.41-1.807-.128a11.31 11.31 0 00-1.606.72v5.719h-1.45V28.94h1.45v3.904c1.185-.641 2.151-.966 2.873-.966a2.332 2.332 0 011.702.582 2.26 2.26 0 01.59 1.682l-.001 5.688zm-1.183-.266h.917v-5.421a2.02 2.02 0 00-.51-1.492 2.081 2.081 0 00-1.515-.505c-.716 0-1.706.35-2.941 1.04l-.199.112v-4.09h-.917v10.356h.917V33.95l.071-.038a11.918 11.918 0 011.719-.774c.979-.318 1.663-.223 2.078.192a1.413 1.413 0 01.38 1.034v5.199zm2.4-3.625a4.222 4.222 0 01.933-2.826c.622-.733 1.545-1.1 2.771-1.1a3.76 3.76 0 012.659.967c.696.645 1.044 1.632 1.044 2.959a4.216 4.216 0 01-.933 2.826c-.622.733-1.545 1.1-2.77 1.1a3.755 3.755 0 01-2.659-.968c-.697-.645-1.045-1.63-1.045-2.958zm6.182 0a3.036 3.036 0 00-.634-2.11 2.173 2.173 0 00-1.858-.772c-.808 0-1.42.25-1.838.752-.418.5-.626 1.21-.626 2.13-.06.76.166 1.514.633 2.116a2.133 2.133 0 001.859.765c.807 0 1.419-.25 1.837-.751.418-.502.627-1.212.627-2.13z" fill="#149038"/><path d="M196.215 39.998a3.904 3.904 0 01-2.75-1.004c-.721-.667-1.087-1.696-1.087-3.056a4.37 4.37 0 01.965-2.912c.645-.76 1.612-1.147 2.872-1.147a3.905 3.905 0 012.75 1.003c.721.668 1.086 1.697 1.086 3.056a4.362 4.362 0 01-.964 2.913c-.646.76-1.612 1.147-2.872 1.147zm0-7.852c-1.178 0-2.076.354-2.669 1.053a4.104 4.104 0 00-.901 2.74c0 1.282.337 2.244 1.001 2.86a3.645 3.645 0 002.569.932c1.178 0 2.076-.354 2.669-1.053a4.114 4.114 0 00.901-2.74c0-1.282-.337-2.244-1.002-2.86a3.644 3.644 0 00-2.568-.932zm-.138 6.811a2.232 2.232 0 01-1.81-.818 3.202 3.202 0 01-.664-2.205c0-.942.222-1.687.658-2.21.442-.532 1.095-.8 1.94-.8a2.328 2.328 0 011.961.82c.488.624.724 1.407.664 2.197 0 .945-.221 1.69-.657 2.213-.442.53-1.095.8-1.94.8a3.424 3.424 0 01-.152.003zm.241-5.77l-.112.003c-.768 0-1.351.237-1.74.704-.395.474-.596 1.162-.596 2.045a2.946 2.946 0 00.603 2.03 2.005 2.005 0 001.75.718c.768 0 1.352-.237 1.741-.704.395-.474.596-1.162.596-2.044v-.005a2.924 2.924 0 00-.603-2.02 2 2 0 00-1.639-.726zm5.061-4.112h1.184v10.622h-1.184V29.075z" fill="#149038"/><path d="M202.696 39.83h-1.45V28.943h1.45V39.83zm-1.183-.266h.916V29.208h-.916v10.356zm11.923-7.551a2.15 2.15 0 011.58.557c.376.37.564.919.564 1.642v5.485h-1.184v-5.332c0-.844-.441-1.266-1.322-1.267-.65 0-1.481.32-2.492.961l.014.654v4.984h-1.184v-5.332c0-.844-.436-1.266-1.308-1.267a3 3 0 00-.947.181 7.224 7.224 0 00-1.531.766v5.652h-1.184V32.18h1.114v.919c1.151-.724 2.121-1.086 2.91-1.086 1.011 0 1.665.39 1.963 1.17 1.15-.78 2.153-1.17 3.007-1.17z" fill="#149038"/><path d="M215.713 39.83h-1.45v-5.465c0-.773-.378-1.133-1.189-1.133-.608 0-1.401.303-2.357.9l.012.579v5.12h-1.45v-5.466c0-.773-.373-1.133-1.175-1.133a2.86 2.86 0 00-.904.174c-.506.181-.99.42-1.441.714v5.71h-1.45v-7.784h1.38v.814c1.081-.65 2.014-.98 2.777-.98 1 0 1.68.37 2.023 1.102 1.112-.732 2.103-1.103 2.947-1.103a2.291 2.291 0 011.674.596c.4.395.603.98.603 1.737v5.619zm-1.183-.266h.916v-5.352c0-.683-.176-1.204-.524-1.548a2.036 2.036 0 00-1.486-.518c-.823 0-1.81.386-2.933 1.146l-.139.095-.06-.157c-.278-.73-.879-1.084-1.838-1.084-.76 0-1.715.358-2.839 1.065l-.204.129v-1.027h-.847v7.251h.916v-5.593l.064-.04a7.396 7.396 0 011.562-.779c.316-.115.649-.178.986-.187.943 0 1.442.484 1.442 1.4v5.2h.916v-4.852l-.015-.726.063-.04c1.029-.652 1.891-.982 2.564-.982.952 0 1.456.484 1.456 1.4v5.2zm6.207-10.413v4.993h-.596v-4.32l-.936.43v-.569l1.089-.534h.443zm1.082 4.999v-.533c.247.046.497.072.749.076a1.639 1.639 0 001.31-.555c.329-.398.5-.904.478-1.421-.455.22-.95.343-1.456.36a1.382 1.382 0 01-1.033-.374 1.444 1.444 0 01-.367-1.054 1.48 1.48 0 01.464-1.144c.334-.295.769-.45 1.214-.43a1.638 1.638 0 011.314.586c.33.39.495.981.495 1.772a3.203 3.203 0 01-.596 2.035 2.092 2.092 0 01-1.754.759 5.328 5.328 0 01-.818-.076zm.298-3.515a.898.898 0 00.243.683.96.96 0 00.693.232c.447-.01.885-.122 1.283-.326a2.104 2.104 0 00-.312-1.192.997.997 0 00-.86-.416 1.234 1.234 0 00-.676.197.745.745 0 00-.271.32c-.07.158-.104.33-.1.502zm3.723 3.515v-.533c.247.046.498.072.749.076a1.643 1.643 0 001.311-.555c.329-.398.499-.904.478-1.421-.455.22-.951.343-1.456.36a1.377 1.377 0 01-1.033-.374 1.444 1.444 0 01-.368-1.054 1.491 1.491 0 01.465-1.144c.333-.295.768-.45 1.213-.43a1.638 1.638 0 011.314.586c.331.39.496.981.496 1.772a3.203 3.203 0 01-.596 2.035 2.095 2.095 0 01-1.754.759 5.34 5.34 0 01-.819-.076zm.298-3.515a.898.898 0 00.243.683.965.965 0 00.694.232 2.97 2.97 0 001.282-.326 2.096 2.096 0 00-.312-1.192.994.994 0 00-.86-.416 1.24 1.24 0 00-.676.197.75.75 0 00-.27.32 1.16 1.16 0 00-.101.502zm4.743 3.509h-.603a7.64 7.64 0 01.367-2.24 6.535 6.535 0 011.227-2.212h-2.461v-.54h3.12v.554a7.033 7.033 0 00-1.22 2.038 7.634 7.634 0 00-.43 2.4zm-102.511-.077v-4.992h3.203v.54h-2.586v1.679h2.26v.533h-2.26v1.7h2.579v.54h-3.196zm4.971-.43c.583 0 .874-.215.874-.645a.501.501 0 00-.198-.409c-.225-.1-.465-.16-.711-.18a1.682 1.682 0 01-.939-.336 1.052 1.052 0 01-.281-.725c0-.734.497-1.102 1.491-1.102.348.002.696.032 1.04.09v.534a6.327 6.327 0 00-.978-.104c-.629 0-.943.185-.943.554a.618.618 0 00.031.205.3.3 0 00.115.146c.055.04.1.07.135.093a.632.632 0 00.198.066 3.293 3.293 0 00.409.066c.26.026.515.092.755.194a.892.892 0 01.486.88 1.085 1.085 0 01-.371.877 1.647 1.647 0 01-1.078.31 12.392 12.392 0 01-1.269-.077v-.548c.408.067.82.104 1.234.111zm2.898-4.139v.825h1.2v.513h-1.2v2.35a.423.423 0 00.122.313.502.502 0 00.364.117c.195-.003.39-.035.575-.096v.52c-.28.058-.566.093-.852.104a.816.816 0 01-.614-.201.867.867 0 01-.191-.618v-2.489h-.527v-.374l.125-.139h.402v-.457l.354-.368h.242zm1.609 3.8h.526v.77h-.526v-.77z" fill="#149038"/><defs><linearGradient id="paint0_linear" x1="82.35" y1="16.601" x2="67.583" y2="3.611" gradientUnits="userSpaceOnUse"><stop stop-color="#2C472D"/><stop offset=".124" stop-color="#214F2E"/><stop offset=".398" stop-color="#0F5C31"/><stop offset=".685" stop-color="#046333"/><stop offset="1" stop-color="#063"/></linearGradient><linearGradient id="paint1_linear" x1="3014.04" y1="1708.63" x2="2644.24" y2="1482.87" gradientUnits="userSpaceOnUse"><stop stop-color="#2C472D"/><stop offset=".124" stop-color="#214F2E"/><stop offset=".398" stop-color="#0F5C31"/><stop offset=".685" stop-color="#046333"/><stop offset="1" stop-color="#063"/></linearGradient><linearGradient id="paint2_linear" x1="16224.1" y1="8276.17" x2="9000.15" y2="515.552" gradientUnits="userSpaceOnUse"><stop stop-color="#2C472D"/><stop offset=".124" stop-color="#214F2E"/><stop offset=".398" stop-color="#0F5C31"/><stop offset=".685" stop-color="#046333"/><stop offset="1" stop-color="#063"/></linearGradient><linearGradient id="paint3_linear" x1="88.837" y1="32.103" x2="88.884" y2="32.126" gradientUnits="userSpaceOnUse"><stop stop-color="#063"/><stop offset=".566" stop-color="#0E542C"/><stop offset="1" stop-color="#1C4426"/></linearGradient><linearGradient id="paint4_linear" x1="41.534" y1="19.827" x2="3.04" y2="47.487" gradientUnits="userSpaceOnUse"><stop stop-color="#2FAC66"/><stop offset=".158" stop-color="#20A257"/><stop offset=".422" stop-color="#0E9645"/><stop offset=".697" stop-color="#048F3A"/><stop offset="1" stop-color="#008D36"/></linearGradient><linearGradient id="paint5_linear" x1="62.929" y1=".006" x2="62.918" y2=".016" gradientUnits="userSpaceOnUse"><stop stop-color="#2FAC66"/><stop offset=".05" stop-color="#24A55B"/><stop offset=".157" stop-color="#149A4A"/><stop offset=".291" stop-color="#08933F"/><stop offset=".479" stop-color="#028E38"/><stop offset="1" stop-color="#008D36"/></linearGradient><linearGradient id="paint6_linear" x1="589.312" y1="186.909" x2="588.356" y2="187.574" gradientUnits="userSpaceOnUse"><stop stop-color="#2FAC66"/><stop offset=".05" stop-color="#24A55B"/><stop offset=".157" stop-color="#149A4A"/><stop offset=".291" stop-color="#08933F"/><stop offset=".479" stop-color="#028E38"/><stop offset="1" stop-color="#008D36"/></linearGradient><linearGradient id="paint7_linear" x1="97.019" y1="35.126" x2="66.772" y2="-1.884" gradientUnits="userSpaceOnUse"><stop stop-color="#008D36"/><stop offset="1" stop-color="#2FAC66"/></linearGradient><linearGradient id="paint8_linear" x1="88.883" y1="32.13" x2="88.862" y2="32.111" gradientUnits="userSpaceOnUse"><stop stop-color="#2FAC66"/><stop offset=".109" stop-color="#26A65D"/><stop offset=".419" stop-color="#119847"/><stop offset=".72" stop-color="#04903A"/><stop offset="1" stop-color="#008D36"/></linearGradient><linearGradient id="paint9_linear" x1="5115.09" y1="1777.39" x2="3745.69" y2="2794.32" gradientUnits="userSpaceOnUse"><stop stop-color="#2FAC66"/><stop offset=".109" stop-color="#26A65D"/><stop offset=".419" stop-color="#119847"/><stop offset=".72" stop-color="#04903A"/><stop offset="1" stop-color="#008D36"/></linearGradient></defs></svg>